<svg width="1200" height="800" viewBox="0 0 1200 800" fill="none" xmlns="http://www.w3.org/2000/svg">
  <rect width="1200" height="800" fill="#F2F2F2"/>
  <rect x="48" y="48" width="1104" height="704" rx="24" fill="#FFFFFF" stroke="#D6D6D6"/>
  <rect x="96" y="96" width="248" height="48" rx="24" fill="#1F2023"/>
  <text x="128" y="123" fill="#FFFFFF" font-family="Arial, Helvetica, sans-serif" font-size="20" font-weight="700">Document intelligence</text>
  <text x="96" y="190" fill="#404040" font-family="Arial, Helvetica, sans-serif" font-size="46" font-weight="700">Transparent evidence</text>
  <text x="96" y="228" fill="#6D6D6D" font-family="Arial, Helvetica, sans-serif" font-size="24">Retrieval, ranking, citations, and grounded review.</text>
  <rect x="96" y="284" width="470" height="386" rx="22" fill="#FBFAFC" stroke="#D6D6D6"/>
  <rect x="132" y="334" width="320" height="12" rx="6" fill="#D4C7DF"/>
  <rect x="132" y="372" width="366" height="12" rx="6" fill="#E2DAE8"/>
  <rect x="132" y="410" width="292" height="12" rx="6" fill="#D4C7DF"/>
  <rect x="132" y="478" width="366" height="16" rx="8" fill="#FFF2A8"/>
  <rect x="132" y="520" width="338" height="12" rx="6" fill="#E2DAE8"/>
  <rect x="132" y="558" width="286" height="12" rx="6" fill="#D4C7DF"/>
  <rect x="614" y="268" width="490" height="432" rx="26" fill="#FAF7FC" stroke="#CDBDDD"/>
  <rect x="654" y="316" width="410" height="90" rx="20" fill="#FFFFFF" stroke="#D6D6D6"/>
  <text x="686" y="356" fill="#57068C" font-family="Arial, Helvetica, sans-serif" font-size="22" font-weight="700">Citation 01</text>
  <text x="686" y="388" fill="#6D6D6D" font-family="Arial, Helvetica, sans-serif" font-size="20">Evidence fragment tied to source and ranking.</text>
  <rect x="690" y="456" width="354" height="108" rx="22" fill="#1F2023"/>
  <text x="724" y="504" fill="#FFFFFF" font-family="Arial, Helvetica, sans-serif" font-size="24" font-weight="700">Evidence path</text>
  <text x="724" y="542" fill="#CFCFD4" font-family="Arial, Helvetica, sans-serif" font-size="20">query -> retrieval -> citation -> answer</text>
  <rect x="640" y="606" width="194" height="54" rx="18" fill="#FFFFFF" stroke="#D6D6D6"/>
  <rect x="858" y="606" width="206" height="54" rx="18" fill="#FFFFFF" stroke="#D6D6D6"/>
  <text x="672" y="640" fill="#404040" font-family="Arial, Helvetica, sans-serif" font-size="20">Hybrid retrieval</text>
  <text x="892" y="640" fill="#404040" font-family="Arial, Helvetica, sans-serif" font-size="20">Source citations</text>
</svg>
