<svg width="1200" height="800" viewBox="0 0 1200 800" fill="none" xmlns="http://www.w3.org/2000/svg">
  <rect width="1200" height="800" fill="#F7F2EC"/>
  <rect x="48" y="48" width="1104" height="704" rx="24" fill="#FFFDF9" stroke="#DDD2C5"/>
  <text x="96" y="138" fill="#404040" font-family="Arial, Helvetica, sans-serif" font-size="42" font-weight="700">Agentic Digital Marketing</text>
  <text x="96" y="176" fill="#7A6B5C" font-family="Arial, Helvetica, sans-serif" font-size="24">Campaign orchestration, audience routing, and dynamic content updates.</text>
  <rect x="96" y="244" width="252" height="388" rx="24" fill="#1F2023"/>
  <text x="132" y="304" fill="#FFFFFF" font-family="Arial, Helvetica, sans-serif" font-size="24" font-weight="700">Campaign inputs</text>
  <rect x="132" y="342" width="180" height="44" rx="16" fill="#57068C"/>
  <rect x="132" y="404" width="180" height="44" rx="16" fill="#8A65A9"/>
  <rect x="132" y="466" width="180" height="44" rx="16" fill="#B89CCF"/>
  <text x="164" y="371" fill="#FFFFFF" font-family="Arial, Helvetica, sans-serif" font-size="18">events + content</text>
  <text x="164" y="433" fill="#FFFFFF" font-family="Arial, Helvetica, sans-serif" font-size="18">audience intent</text>
  <text x="164" y="495" fill="#FFFFFF" font-family="Arial, Helvetica, sans-serif" font-size="18">conversion goals</text>
  <rect x="384" y="244" width="312" height="388" rx="24" fill="#FFFFFF" stroke="#D6D6D6"/>
  <text x="420" y="304" fill="#57068C" font-family="Arial, Helvetica, sans-serif" font-size="24" font-weight="700">Workflow engine</text>
  <rect x="420" y="344" width="240" height="16" rx="8" fill="#D7C9BC"/>
  <rect x="420" y="392" width="212" height="14" rx="7" fill="#E6DACE"/>
  <rect x="420" y="438" width="228" height="14" rx="7" fill="#D7C9BC"/>
  <rect x="420" y="500" width="170" height="46" rx="18" fill="#E4A83E"/>
  <text x="454" y="530" fill="#1F2023" font-family="Arial, Helvetica, sans-serif" font-size="18" font-weight="700">update page</text>
  <rect x="608" y="500" width="52" height="46" rx="18" fill="#F2E8DA"/>
  <text x="625" y="530" fill="#7A6B5C" font-family="Arial, Helvetica, sans-serif" font-size="18" font-weight="700">→</text>
  <rect x="732" y="244" width="328" height="388" rx="24" fill="#FFF7EE" stroke="#E2C8A7"/>
  <text x="768" y="304" fill="#8A5A2B" font-family="Arial, Helvetica, sans-serif" font-size="24" font-weight="700">Outputs</text>
  <rect x="768" y="344" width="230" height="46" rx="16" fill="#FFFFFF"/>
  <rect x="768" y="408" width="196" height="46" rx="16" fill="#FFFFFF"/>
  <rect x="768" y="472" width="214" height="46" rx="16" fill="#FFFFFF"/>
  <text x="800" y="374" fill="#404040" font-family="Arial, Helvetica, sans-serif" font-size="18">campaign page</text>
  <text x="800" y="438" fill="#404040" font-family="Arial, Helvetica, sans-serif" font-size="18">audience segment</text>
  <text x="800" y="502" fill="#404040" font-family="Arial, Helvetica, sans-serif" font-size="18">conversion path</text>
</svg>
