<svg width="1200" height="800" viewBox="0 0 1200 800" fill="none" xmlns="http://www.w3.org/2000/svg">
  <rect width="1200" height="800" fill="#F7F2EC"/>
  <rect x="48" y="48" width="1104" height="704" rx="24" fill="#FFFDF9" stroke="#DDD2C5"/>
  <text x="96" y="138" fill="#404040" font-family="Arial, Helvetica, sans-serif" font-size="42" font-weight="700">Find Puppet Shows Near You</text>
  <text x="96" y="176" fill="#7A6B5C" font-family="Arial, Helvetica, sans-serif" font-size="24">Poster-led discovery with direct venue and ticket paths.</text>
  <rect x="96" y="244" width="172" height="220" rx="20" fill="#57068C"/>
  <rect x="292" y="244" width="172" height="220" rx="20" fill="#E4A83E"/>
  <rect x="488" y="244" width="172" height="220" rx="20" fill="#2F4E6F"/>
  <text x="128" y="342" fill="#FFFFFF" font-family="Georgia, 'Times New Roman', serif" font-size="34" font-weight="700">Puppet</text>
  <text x="324" y="326" fill="#FFFFFF" font-family="Georgia, 'Times New Roman', serif" font-size="30" font-weight="700">Festival</text>
  <text x="520" y="342" fill="#FFFFFF" font-family="Georgia, 'Times New Roman', serif" font-size="34" font-weight="700">On stage</text>
  <rect x="704" y="244" width="356" height="388" rx="24" fill="#FFFFFF" stroke="#D6D6D6"/>
  <rect x="742" y="294" width="280" height="14" rx="7" fill="#D7C9BC"/>
  <rect x="742" y="342" width="248" height="12" rx="6" fill="#E6DACE"/>
  <rect x="742" y="390" width="272" height="12" rx="6" fill="#D7C9BC"/>
  <rect x="742" y="450" width="180" height="48" rx="18" fill="#57068C"/>
  <text x="780" y="482" fill="#FFFFFF" font-family="Arial, Helvetica, sans-serif" font-size="20">View venue</text>
  <rect x="742" y="520" width="188" height="48" rx="18" fill="#1F2023"/>
  <text x="778" y="552" fill="#FFFFFF" font-family="Arial, Helvetica, sans-serif" font-size="20">Get tickets</text>
</svg>
