<svg width="1200" height="800" viewBox="0 0 1200 800" fill="none" xmlns="http://www.w3.org/2000/svg">
  <rect width="1200" height="800" fill="#EFF2F4"/>
  <rect x="48" y="48" width="1104" height="704" rx="24" fill="#FAFCFD" stroke="#D0D7DD"/>
  <text x="96" y="138" fill="#404040" font-family="Arial, Helvetica, sans-serif" font-size="48" font-weight="700">Retail Shelf Computer Vision</text>
  <text x="96" y="176" fill="#6D6D6D" font-family="Arial, Helvetica, sans-serif" font-size="24">Shelf detection, classification, and policy-facing analysis.</text>
  <rect x="96" y="244" width="1008" height="416" rx="24" fill="#DCE5EA"/>
  <rect x="130" y="290" width="940" height="78" rx="18" fill="#B8CAD5"/>
  <rect x="130" y="408" width="940" height="78" rx="18" fill="#B8CAD5"/>
  <rect x="130" y="526" width="940" height="78" rx="18" fill="#B8CAD5"/>
  <rect x="166" y="304" width="124" height="50" rx="10" fill="#E0645C"/>
  <rect x="318" y="304" width="102" height="50" rx="10" fill="#F2BF4A"/>
  <rect x="452" y="304" width="116" height="50" rx="10" fill="#5A89B4"/>
  <rect x="612" y="304" width="104" height="50" rx="10" fill="#E0645C"/>
  <rect x="760" y="304" width="128" height="50" rx="10" fill="#6A8E4F"/>
  <rect x="220" y="426" width="170" height="50" rx="10" fill="#5A89B4"/>
  <rect x="438" y="426" width="128" height="50" rx="10" fill="#F2BF4A"/>
  <rect x="632" y="426" width="146" height="50" rx="10" fill="#E0645C"/>
  <rect x="240" y="294" width="188" height="70" rx="18" stroke="#57068C" stroke-width="5"/>
  <rect x="744" y="294" width="160" height="70" rx="18" stroke="#57068C" stroke-width="5"/>
  <rect x="610" y="416" width="192" height="70" rx="18" stroke="#3C8C5B" stroke-width="5"/>
  <rect x="860" y="560" width="194" height="58" rx="18" fill="#1F2023"/>
  <text x="896" y="597" fill="#FFFFFF" font-family="Arial, Helvetica, sans-serif" font-size="20">Detection overlay</text>
</svg>
